# xmcd CD database file
#
# Track frame offsets:
#	150
#	11052
#	22320
#	34275
#	44022
#	53712
#	67592
#	81150
#	92437
#	106252
#	116647
#	131359
#
# Disc length: 1918 seconds
#
# Revision: 1
# Processed by: cddbd v1.5.2PL0 Copyright (c) Steve Scherf et al.
# Submitted via: CDex 1.70beta2
#
DISCID=98077c0c
DTITLE=Willie Nelson - Greatest Hits Gold - Disc 2
DYEAR=2008
DGENRE=Country
TTITLE0=I'm A Memory
TTITLE1=Pretty Paper
TTITLE2=Laying My Burdens Down
TTITLE3=San Antonio Rose
TTITLE4=Mountain Dew
TTITLE5=Have I Told You Lately That I Love You?
TTITLE6=I Love You Because
TTITLE7=The Party's Over
TTITLE8=Both Sides Now
TTITLE9=To Make A Long Story Short (She's Gone)
TTITLE10=What Now My Love
TTITLE11=It Should Be Easier Now
EXTD=YEAR: 2008
EXTT0=
EXTT1=
EXTT2=
EXTT3=
EXTT4=
EXTT5=
EXTT6=
EXTT7=
EXTT8=
EXTT9=
EXTT10=
EXTT11=
PLAYORDER=
